/* XPM */
static char *result[] = {
/* columns rows colors chars-per-pixel */
"128 128 29 1 ",
"  c #401F0C",
". c #44220E",
"X c #4F2915",
"o c #532C17",
"O c #6D3E23",
"+ c #704026",
"@ c #734228",
"# c #744329",
"$ c #77462C",
"% c #8D481F",
"& c #AA4B0D",
"* c #B85710",
"= c #925220",
"- c #995826",
"; c #905328",
": c #936435",
"> c #C04D00",
", c #C35102",
"< c #C95906",
"1 c #CF6009",
"2 c #DD7212",
"3 c #E57D17",
"4 c #E98219",
"5 c #EA821A",
"6 c #EA9029",
"7 c #EA942E",
"8 c #ECA441",
"9 c #EEBF60",
"0 c None",
/* pixels */
"00000000000000000000000000000000000000000000000000000000000000000000000000000000000000000000000000000000000000000000000000000000",
"00000000000000000000000000000000000000000000000000000000000000000000000000000000000000000000000000000000000000000000000000000000",
"00000000000000000000000000000000000000000000000000000000000000000000000000000000000000000000000000000000000000000000000000000000",
"00000000000000000000000000000000000000000000000000000000000000000000000000000000000000000000000000000000000000000000000000000000",
"00000000000000000000000000000000000000000000000000000000000000000000000000000000000000000000000000000000000000000000000000000000",
"00000000000000000000000000000000000000000000000000000000000000000000000000000000000000000000000000000000000000000000000000000000",
"00000000000000000000000000000000000000000000000000000000000000000000000000000000000000000000000000000000000000000000000000000000",
"00000000000000000000000000000000000000000000000000000000000000000000000000000000000000000000000000000000000000000000000000000000",
"00000000000000000000000000000000000000000000000000000000000000000000000000000000000000000000000000000000000000000000000000000000",
"00000000000000000000000000000000000000000000000000000000000000000000000000000000000000000000000000000000000000000000000000000000",
"00000000000000000000000000000000000000000000000000000000000000000000000000000000000000000000000000000000000000000000000000000000",
"00000000000000000000000000000000000000000000000000000000000000000000000000000000000000000000000000000000000000000000000000000000",
"00000000000000000000000000000000000000000000000000000000000000000000000000000000000000000000000000000000000000000000000000000000",
"00000000000000000000000000000000000000000000000000000000000000000000000000000000000000000000000000000000000000000000000000000000",
"00000000000000000000000000000000000000000000000000000000000000000000000000000000000000000000000000000000000000000000000000000000",
"00000000000000000000000000000000000000000000000000000000000000000000000000000000000000000000000000000000000000000000000000000000",
"00000000000000000000000000000000000000000000000000000000000000000000000000000000000000000000000000000000000000000000000000000000",
"00000000000000000000000000000000000000000000000000000000000000000000000000000000000000000000000000000000000000000000000000000000",
"00000000000000000000000000000000000000000000000000000000000000000000000000000000000000000000000000000000000000000000000000000000",
"00000000000000000000000000000000000000000000000000000000000000000000000000000000000000000000000000000000000000000000000000000000",
"00000000000000000000000000000000000000000000000000000000000000000000000000000000000000000000000000000000000000000000000000000000",
"00000000000000000000000000000000000000000000000000000000000000000000000000000000000000000000000000000000000000000000000000000000",
"00000000000000000000000000000000000000000000000000000000000000000000000000000000000000000000000000000000000000000000000000000000",
"00000000000000000000000000000000000000000000000000000000000000000000000000000000000000000000000000000000000000000000000000000000",
"00000000000000000000000000000000000000000000000000000000000000000000000000000000000000000000000000000000000000000000000000000000",
"00000000000000000000000000000000000000000000000000000000000000000000000000000000000000000000000000000000000000000000000000000000",
"00000000000000000000000000000000000000000000000000000000000000000000000000000000000000000000000000000000000000000000000000000000",
"00000000000000000000000000000000000000000000000000000000000000000000000000000000000000000000000000000000000000000000000000000000",
"00000000000000000000000000000000000000000000000000000000000000000000000000000000000000000000000000000000000000000000000000000000",
"00000000000000000000000000000000000000000000000000000000000000000000000000000000000000000000000000000000000000000000000000000000",
"00000000000000000000000000000000000000000000000000000000000000000000000000000000000000000000000000000000000000000000000000000000",
"00000000000000000000000000000000000000000000000000000000000000000000000000000000000000000000000000000000000000000000000000000000",
"00000000000000000000000000000000000000000000000000000000000000000000000000000000000000000000000000000000000000000000000000000000",
"00000000000000000000000000000000000000000000000000000000000000000000000000000000000000000000000000000000000000000000000000000000",
"00000000000000000000000000000000000000000000000000000000000000000000000000000000000000000000000000000000000000000000000000000000",
"00000000000000000000000000000000000000000000000000000000000000000000000000000000000000000000000000000000000000000000000000000000",
"00000000000000000000000000000000000000000000000000000000000000000000000000000000000000000000000000000000000000000000000000000000",
"00000000000000000000000000000000000000000000000000000000000000000000000000000000000000000000000000000000000000000000000000000000",
"00000000000000000000000000000000000000000000000000000000000000000000000000000000000000000000000000000000000000000000000000000000",
"00000000000000000000000000000000000000000000000000000000000000000000000000000000000000000000000000000000000000000000000000000000",
"00000000000000000000000000000000000000000000000000000000000000000000000000000000000000000000000000000000000000000000000000000000",
"00000000000000000000000000000000000000000000000000000000000000000000000000000000000000000000000000000000000000000000000000000000",
"00000000000000000000000000000000000000000000000000000000000000000000000000000000000000000000000000000000000000000000000000000000",
"00000000000000000000000000000000000000000000000000000000000000000000000000000000000000000000000000000000000000000000000000000000",
"00000000000000000000000000000000000000000000000000000000000000000000000000000000000000000000000000000000000000000000000000000000",
"00000000000000000000000000000000000000000000000000000000000000000000000000000000000000000000000000000000000000000000000000000000",
"00000000000000000000000000000000000000000000000000000000000000000000000000000000000000000000000000000000000000000000000000000000",
"00000000000000000000000000000000000000000000000000000000000000000000000000000000000000000000000000000000000000000000000000000000",
"00000000000000000000000000000000000000000000000000000000000000000000000000000000000000000000000000000000000000000000000000000000",
"00000000000000000000000000000000000000000000000000000000000000000000000000000000000000000000000000000000000000000000000000000000",
"00000000000000000000000000000000000000000000000000000000000000000000000000000000000000000000000000000000000000000000000000000000",
"00000000000000000000000000000000000000000000000000000000000000000000000000000000000000000000000000000000000000000000000000000000",
"00000000000000000000000000000000000000000000000000000000000000000000000000000000000000000000000000000000000000000000000000000000",
"00000000000000000000000000000000000000000000000000000000000000000000000000000000000000000000000000000000000000000000000000000000",
"00000000000000000000000000000000000000000000000000000000000000000000000000000000000000000000000000000000000000000000000000000000",
"00000000000000000000000000000000000000000000000000000000000000000000000000000000000000000000000000000000000000000000000000000000",
"00000000000000000000000000000000000000000000000000000000000000000000000000000000000000000000000000000000000000000000000000000000",
"00000000000000000000000000000000000000000000000000000000000000000000000000000000000000000000000000000000000000000000000000000000",
"00000000000000000000000000000000000000000000000000000000000000000000000000000000000000000000000000000000000000000000000000000000",
"0000000000000000000000000000000000000>>>0000000000000000000000000000000000000000000000000000000000000000000000000000000000000000",
"0000000000000000000000000000000000000>>>0000000000000000000000000000000000000000000000000000000000000000000000000000000000000000",
"0000000000000000000000000000000000000>>>0000000000000000000000000000000000000000000000000000000000000000000000000000000000000000",
"0000000000000000000000000000000000000000000000000000000000000000000000000000000000000000>>>0000000000000000000000000000000000000",
"0000000000000000000000000000000000000000000000000000000000000000000000000000000000000000>>>0000000000000000000000000000000000000",
"0000000000000000000000000000000000000000000000000000000000000000000000000000000000000000000000>>00000000000000000000000000000000",
"0000000000000000000000000000000000000000000000000000000000000000000000000000000000000000000000>>00000000000000000000000000000000",
"0000000000000000000000000000000000000000000000000000000000000000000000000000000000000000000000>>00000000000000000000000000000000",
"000000000000000000000000000000000000000000000>>000000000000000000000>>0000000000000000000000000000000000000000000000000000000000",
"000000000000000000000000000000000000000000000>>000000000000000000000>>0000000000000000000000000000000000000000000000000000000000",
"00000000000000000000000000000000000000000000000000000000000000000000000000000000000000000000000000000000000000000000000000000000",
"00000000000000000000000000000000000000000000000000000000000000000000000000000000000000000000000000000000000000000000000000000000",
"00000000000000000000000000000000000000000000000000000000000000000000000000000000000000000000000000000000000000000000000000000000",
"0000000000000000000000000000000000000000>>00000000000000000000000000000000000000000000000000000000000000000000000000000000000000",
"0000000000000000000000000000000000000000>>00000000000000000000000000000000000000000000000000000000000000000000000000000000000000",
"0000000000000000000000000000000000000000>>00000000000000000000000000000000000000000000000000000000000000000000000000000000000000",
"00000000000000000000000000000000000000000000000000000000000000000000000000000000000000000000000000000000000000000000000000000000",
"00000000000000000000000000000000000000000000000000000000000000000000000000000000000000000000000000000000000000000000000000000000",
"00000000000000000000000000000000000000000000000000000000000000000000000000000000000000000000000000000000000000000000000000000000",
"00000000000000000000000000000000000000000000000000000000000000000000000000000000000000000000000000000000000000000000000000000000",
"00000000000000000000000000000000000000000000000000000000000000000000000000000000000000000000000000000000000000000000000000000000",
"00000000000000000000000000000000000000000000000000000000000000000>>>000000000000000000000000000000000000000000000000000000000000",
"00000000000000000000000000000000000000000000000000000000000000000>>>000000000000000000000000000000000000000000000000000000000000",
"000000000000000000000000000000000000000000000000000000000000000>>>>>00000000>>00000000000000000000000000000000000000000000000000",
"000000000000000000000000000000000000000000000000000000000000000>>>>>00000000>>00000000000000000000000000000000000000000000000000",
"000000000000000000000000000000000000000000000000000000000000000>>>>>00000000>>00000000000000000000000000000000000000000000000000",
"000000000000000000000000000000000000000000000000000000000000>>>>>>>>00000>>>0000000000000000000000000000000000000000000000000000",
"000000000000000000000000000000000000000000000000000000000000>>>>>>>>00000>>>0000000000000000000000000000000000000000000000000000",
"0000000000000000000000000000000000000000000000000000000000>>>>>>>00000>>>>>>0000000000000000000000000000000000000000000000000000",
"0000000000000000000000000000000000000000000000000000000000>>>>>>>00000>>>>>>0000000000000000000000000000000000000000000000000000",
"0000000000000000000000000000000000000000000000000000000000>>>>>>>00000>>>>>>0000000000000000000000000000000000000000000000000000",
"0000000000000000000000000000000000000000000000000000000>>>>>44444>>>>>>>>0000000000>>>000000000000000000000000000000000000000000",
"0000000000000000000000000000000000000000000000000000000>>>>>44444>>>>>>>>0000000000>>>000000000000000000000000000000000000000000",
"0000000000000000000000000000000000000000000000000000000>>>114444411111,>>0000000000>>>000000000000000000000000000000000000000000",
"00000000000000000000000000000000000000000000000>>>00000>>>444444444444<>>00000000>>>>>000000000000000000000000000000000000000000",
"00000000000000000000000000000000000000000000000>>>00000>>>444444444444<>>00000000>>>>>000000000000000000000000000000000000000000",
"000000000000000000000000000000000000000000000>>000000>>444444444444444444>>>00>>>>>000000000000000000000000000000000000000000000",
"000000000000000000000000000000000000000000000>>000000>>444444444444444444>>>00>>>>>000000000000000000000000000000000000000000000",
"000000000000000000000000000000000000000000000>>000000>>444444444444444444>>>00>>>>>000000000000000000000000000000000000000000000",
"000000000000000000000000000000000000000000>>>>>000000>>44444444449999999944444444>>000000000000000000000000000000000000000000000",
"000000000000000000000000000000000000000000>>>>>000000>>44444444449999999944444444>>000000000000000000000000000000000000000000000",
"000000000000000000000000000000000000000000>>>44>>>444444444499999999996444449944444000000000000000000000000000000000000000000000",
"000000000000000000000000000000000000000000>>>44>>>444444444499999999996444449944444000000000000000000000000000000000000000000000",
"000000000000000000000000000000000000000000>>>44>>>444444444499999999996444449944444000000000000000000000000000000000000000000000",
"000000000000000000000000000000000000000000>>>4444444444444999999999999644$$$$$99944000000000000000000000000000000000000000000000",
"000000000000000000000000000000000000000000>>>4444444444444999999999999644$$$$$99944000000000000000000000000000000000000000000000",
"000000000000000000000000000000000000000000000>>44499844444999999999944;$$$$$$$$$$44>>>00000>>>0000000000000000000000000000000000",
"000000000000000000000000000000000000000000000>>44499844444999999999944;$$$$$$$$$$44>>>00000>>>0000000000000000000000000000000000",
"000000000000000000000000000000000000000000000>>44499844444999999999944;$$$$$$$$$$44>>>00000>>>0000000000000000000000000000000000",
"000000000000000000000000000000000000000000000>>444$$$$$444999999999944;$$OOOOO$$$$$>>>00>>>0000000000000000000000000000000000000",
"000000000000000000000000000000000000000000000>>444$$$$$444999999999944;$$OOOOO$$$$$>>>00>>>0000000000000000000000000000000000000",
"00000000000000000000000000000000000>>0000000022---$$#++===::9999977744*&&OOOOO+++$$%%%55222553>>00000000000000000000000000000000",
"00000000000000000000000000000000000>>0000000044$$$$$@OOOOOOO9999944444<>>OOOOOOOO$$$$$44444443>>00000000000000000000000000000000",
"00000000000000000000000000000000000>>0000000044$$$$$@OOOOOOO9999944444<>>OOOOOOOO$$$$$44444443>>00000000000000000000000000000000",
"00000000000000000000000000000000000>>00000444$$$$$OOOOOOOO44>>>44$$$$$$$$OOOOOOOOOO$$$$$444>>>0000000000000000000000000000000000",
"00000000000000000000000000000000000>>00000444$$$$$OOOOOOOO44>>>44$$$$$$$$OOOOOOOOOO$$$$$444>>>0000000000000000000000000000000000",
"00000000000000000000000000000000000>>00000444$$$$$OOOOOOOO44>>>44$$$$$$$$OOOOOOOOOO$$$$$444>>>0000000000000000000000000000000000",
"00000000000000000000000000000000000>>>>>00$$$$$OOOOOOOO>>>$$$$$$$OOOoooooOOOOOOOOOOOOOOOOOO>>>0000000000000000000000000000000000",
"00000000000000000000000000000000000>>>>>00$$$$$OOOOOOOO>>>$$$$$$$OOOoooooOOOOOOOOOOOOOOOOOO>>>0000000000000000000000000000000000",
"0000000000000000000000000000000000000444$$$$$OOOOO$$$$$$$$OOOOOOOOOOoooooooo44>>>OOOOOOOOOOOOO0000000000000000000000000000000000",
"0000000000000000000000000000000000000444$$$$$OOOOO$$$$$$$$OOOOOOOOOOoooooooo44>>>OOOOOOOOOOOOO0000000000000000000000000000000000",
"0000000000000000000000000000000000000444$$$$$OOOOO$$$$$$$$OOOOOOOOOOoooooooo44>>>OOOOOOOOOOOOO0000000000000000000000000000000000",
"0000000000000000000000000000000000000$$$$$OOOOO>>>OOOOOOOOOOOOO>>ooo  XooooooooooooOOOOOOOOOOOOO00000000000000000000000000000000",
"0000000000000000000000000000000000000$$$$$OOOOO>>>OOOOOOOOOOOOO>>ooo  XooooooooooooOOOOOOOOOOOOO00000000000000000000000000000000",
"00000000000000000000000000000000000$$$$$OOOOOooooooooooooooooooooooooo.  oooooooooo>>>OOOOOOOOOOOOO00000000000000000000000000000",
"00000000000000000000000000000000000$$$$$OOOOOooooooooooooooooooooooooo.  oooooooooo>>>OOOOOOOOOOOOO00000000000000000000000000000",
"00000000000000000000000000000000000$$$$$OOOOOooooooooooooooooooooooooo.  oooooooooo>>>OOOOOOOOOOOOO00000000000000000000000000000",
"00000000000000000000000000000000000$$OOOOO>>>                       00000   ooooo00000>>OOOOOOOO00000000000000000000000000000000",
"00000000000000000000000000000000000$$OOOOO>>>                       00000   ooooo00000>>OOOOOOOO00000000000000000000000000000000"
};
