/* XPM */
static char *result[] = {
/* columns rows colors chars-per-pixel */
"64 64 238 2 ",
"   c black",
".  c gray1",
"X  c #030405",
"o  c #040404",
"O  c #090909",
"+  c gray4",
"@  c #0A0B0B",
"#  c #0B0B0B",
"$  c #0B0C0C",
"%  c #0C0C0C",
"&  c #0C0D0D",
"*  c gray5",
"=  c #0E0E0E",
"-  c gray6",
";  c #1A1200",
":  c #1C1400",
">  c #0B1114",
",  c #0C1214",
"<  c #101010",
"1  c #101111",
"2  c #111111",
"3  c #121111",
"4  c gray7",
"5  c #131212",
"6  c #131313",
"7  c #161413",
"8  c #111517",
"9  c gray8",
"0  c #151414",
"q  c #151515",
"w  c #161515",
"e  c #151516",
"r  c #161616",
"t  c #171616",
"y  c #161717",
"u  c gray9",
"i  c #191715",
"p  c #1A1715",
"a  c #191716",
"s  c #181717",
"d  c #171718",
"f  c #181818",
"g  c #191919",
"h  c #191A1A",
"j  c gray10",
"k  c #1A1A1B",
"l  c #1A1B1B",
"z  c #1B1B1B",
"x  c #181B1D",
"c  c #1B1B1C",
"v  c gray11",
"b  c #1D1D1C",
"n  c #1D1D1D",
"m  c #1E1E1D",
"M  c #1E1E1E",
"N  c #1F1F1E",
"B  c gray12",
"V  c #281F10",
"C  c #201F1F",
"Z  c #282011",
"A  c #292011",
"S  c #292111",
"D  c #292012",
"F  c #2B2214",
"G  c #21201F",
"H  c #202020",
"J  c #212020",
"K  c #202121",
"L  c gray13",
"P  c #222121",
"I  c #222221",
"U  c #212222",
"Y  c #222222",
"T  c #232222",
"R  c #222323",
"E  c #232323",
"W  c #252321",
"Q  c #242322",
"!  c #232324",
"~  c #232424",
"^  c #212526",
"/  c #232627",
"(  c gray14",
")  c #242525",
"_  c #252525",
"`  c #262525",
"'  c #262624",
"]  c #262625",
"[  c gray15",
"{  c #272626",
"}  c #272726",
"|  c #272727",
" . c #2A2421",
".. c #2C2622",
"X. c #282625",
"o. c #282726",
"O. c #282727",
"+. c #272728",
"@. c #282828",
"#. c gray16",
"$. c #2A2929",
"%. c #2A2A29",
"&. c #2A2A2A",
"*. c #2B2A2A",
"=. c gray17",
"-. c #2C2C2C",
";. c #2E2D2D",
":. c #2E2E2D",
">. c gray18",
",. c #2F2E2E",
"<. c #2F2F2F",
"1. c #312925",
"2. c #302A27",
"3. c #332E2B",
"4. c #3E3226",
"5. c #3F3327",
"6. c #35302E",
"7. c #36312F",
"8. c #2F3030",
"9. c #2F3132",
"0. c gray19",
"q. c #313030",
"w. c #313233",
"e. c #343332",
"r. c #323334",
"t. c #353434",
"y. c #353535",
"u. c #363535",
"i. c #373535",
"p. c #373635",
"a. c #373636",
"s. c #383735",
"d. c #393737",
"f. c #393838",
"g. c #393939",
"h. c #3A3939",
"j. c #393A3A",
"k. c #3A3A3A",
"l. c #3B3A3A",
"z. c #3A3B3B",
"x. c #3F3A38",
"c. c #3E3B38",
"v. c #3C3B3B",
"b. c #3E3C3A",
"n. c #3F3D3B",
"m. c #3F3E3B",
"M. c #3B3C3C",
"N. c #3C3C3C",
"B. c gray24",
"V. c #3E3D3D",
"C. c #3E3E3D",
"Z. c #3D3E3E",
"A. c #3E3E3E",
"S. c #3F3E3E",
"D. c #3F3F3E",
"F. c #3F3F3F",
"G. c #403C3A",
"H. c #403D3B",
"J. c #423D3B",
"K. c #413E3B",
"L. c #413E3C",
"P. c #423F3C",
"I. c #403F3F",
"U. c #413F3F",
"Y. c #453F3C",
"T. c #40403F",
"R. c #46403D",
"E. c #44413E",
"W. c #45423F",
"Q. c #414040",
"!. c #414141",
"~. c #424140",
"^. c #424141",
"/. c gray26",
"(. c #434242",
"). c #444342",
"_. c #444444",
"`. c gray27",
"'. c #464544",
"]. c #464646",
"[. c gray28",
"{. c #4A4440",
"}. c #494643",
"|. c #4C4540",
" X c #484644",
".X c #494644",
"XX c #4B4745",
"oX c #4C4845",
"OX c #4C4946",
"+X c #4D4946",
"@X c #4D4A47",
"#X c #4E4A46",
"$X c #4E4A47",
"%X c #484848",
"&X c #494848",
"*X c #494948",
"=X c #484949",
"-X c #494949",
";X c gray29",
":X c #4B4B4B",
">X c #4F4B48",
",X c #4C4C4C",
"<X c #4D4D4C",
"1X c gray30",
"2X c #524A45",
"3X c #504C49",
"4X c #57504B",
"5X c #58514C",
"6X c #5A5753",
"7X c #5B5753",
"8X c #5B5754",
"9X c #5C5854",
"0X c #5D5954",
"qX c #5D5955",
"wX c #5E5955",
"eX c #5D5956",
"rX c #5E5A56",
"tX c #5F5A56",
"yX c #6A6A6A",
"uX c gray42",
"iX c #6C6C6C",
"pX c #6D6D6D",
"aX c gray43",
"sX c #6F6F6F",
"dX c gray44",
"fX c #977E70",
"gX c #987F71",
"hX c #998071",
"jX c #998072",
"kX c #9A8172",
"lX c #9A8173",
"zX c #9B8173",
"xX c #9A8273",
"cX c #9B8273",
"vX c #A18777",
"bX c #A28778",
"nX c #A38979",
"mX c black",
/* pixels */
"mXmXmXmXmXmXmXmXmXmXmXmXmXmXnXbX..> C.A.@.[ | [ mXmXmXmXmXmXmXmXmXmXmXmXmXmXmXmXmXmXmXmXmXmXmXmXmXmXmXmXmXmXmXmXmXmXmXmXmXmXmXmX",
"mXmXmXmXmXmXmXmXmXmXmXmXmXmXzXhX ., v.N.@.[ &.&.mXmXmXmXmXmXmXmXmXmXmXmXmXmXmXmXmXmXmXmXmXmXmXmXmXmXmXmXmXmXmXmXmXmXmXmXmXmXmXmX",
"mXmXmXmXmXmXmXmXA A A A V F 4.5.a y #.=.| &.N.N.@.[ @.[ 4 * o . + # & * - < mXmXmXmXmXmXmXmXmXmXmXmXmXmXmXmXmXmXmXmXmXmXmXmXmXmX",
"mXmXmXmXmXmXmXmXA S A Z D V : ; 7 d _ | [ &.N.B.#.| @.[ r r L Y g f r q 4 < mXmXmXmXmXmXmXmXmXmXmXmXmXmXmXmXmXmXmXmXmXmXmXmXmXmX",
"mXmXmXmXmXmXmXmXmXmXmXmXmXmXmXmXmXmXmXmXmXmX#.=.@.[ 6 9   v yXpX-X_.a.q.4 + < - mXmXmXmXmXmXmXmXmXmXmXmXmXmXmXmXmXmXmXmXmXmXmXmX",
"mXmXmXmXmXmXmXmXmXmXmXmXmXmXmXmXmXmXmXmXmXmX[ [ @.[ < 9 v 0.pXdX,X[.l.u.j 6 2 - mXmXmXmXmXmXmXmXmXmXmXmXmXmXmXmXmXmXmXmXmXmXmXmX",
"mXmXmXmXmXmXmXmXmXmXmXmXmXmXmXmXmXmXmXmXmXmXmXmXmXmXo L yXaXdXaX1X%X-X].u.q.0 % < = mXmXmXmXmXmXmXmXmXmXmXmXmXmXmXmXmXmXmXmXmXmX",
"mXmXmXmXmXmXmXmXmXmXmXmXmXmXmXmXmXmXmXmXmXmXmXmXmXmX. Y iXsXaXuX:X].-X[.h.u.r $ 2 - mXmXmXmXmXmXmXmXmXmXmXmXmXmXmXmXmXmXmXmXmXmX",
"mXmXmXmXmXmXmXmXmXmXmXmXmXmXmXmXmXmXmXmXmXmXmXmXmXmX= 9 E &.:X,X( H | &.[.`.g O 3 = mXmXmXmXmXmXmXmXmXmXmXmXmXmXmXmXmXmXmXmXmXmX",
"mXmXmXmXmXmXmXmXmXmXmXmXmXmXmXmXmXmXmXmXmXmXmXmXmXmX= 6 v _ _.`._ Y #.-.-X[.g O 4 - mXmXmXmXmXmXmXmXmXmXmXmXmXmXmXmXmXmXmXmXmXmX",
"mXmXmXmXmXmXmXmXmXmXmXmXmXmXmXmXmXmXmXmXmXmXmXmXmXmX# u ].[.g.f.].[.[.[.;X].g O 4 - mXmXmXmXmXmXmXmXmXmXmXmXmXmXmXmXmXmXmXmXmXmX",
"mXmXmXmXmXmXmXmXmXmXmXmXmXmXmXmXmXmXmXmXmXmXmXmXmXmX# s %X-Xu.t.&X;X-X-X-X`.g O 4 - mXmXmXmXmXmXmXmXmXmXmXmXmXmXmXmXmXmXmXmXmXmX",
"mXmXmXmXmXmXmXmXmXmXmXmXmXmXmXmXmXmXmXmXmXmXmXmXmXmX% r /./.L L !._.-X%Xg.t.w % 2 - mXmXmXmXmXmXmXmXmXmXmXmXmXmXmXmXmXmXmXmXmXmX",
"mXmXmXmXmXmXmXmXmXmXmXmXmXmXmXmXmXmXmXmXmXmXmXmXmXmX% r /./._ _ !._.[.].d.e.q % 2 - mXmXmXmXmXmXmXmXmXmXmXmXmXmXmXmXmXmXmXmXmXmX",
"mXmXmXmXmXmXmXmXmXmXmXmXmXmXmXmXmXmXmXmXmXmXmXmXmXmX# u !._.].[._./.f.a.r.8.9 % 1 - mXmXmXmXmXmXmXmXmXmXmXmXmXmXmXmXmXmXmXmXmXmX",
"mXmXmXmXmXmXmXmXmXmXmXmXmXmXmXmXmXmXmXmXmXmXmXmXmXmX* f !._.%X*X'.).a.t.J.x.t @ 2 - mXmXmXmXmXmXmXmXmXmXmXmXmXmXmXmXmXmXmXmXmXmX",
"mXmXmXmXmXmXmXmXmXmXmXmXmXmXmXmXmXmXmXmXmXmXmXmX* 2 z L N.A.a.u.9.w.9.G.lXgX1.  p = mXmXmXmXmXmXmXmXmXmXmXmXmXmXmXmXmXmXmXmXmXmX",
"mXmXmXmXmXmXmXmXmXmXmXmXmXmXmXmXmXmXmXmXmXmXmXmX2 9 v Y V.D.p.i.Y.R.y.J.jXfX1.  p = mXmXmXmXmXmXmXmXmXmXmXmXmXmXmXmXmXmXmXmXmXmX",
"mXmXmXmXmXmXmXmXmXmXmXmXmXmXmXmXmXmXmXmXmXmXmXmXh c k I OX>Xn.{.jXgX4X.X2X|.i X 3 - - - mXmXmXmXmXmXmXmXmXmXmXmXmXmXmXmXmXmXmXmX",
"mXmXmXmXmXmXmXmXmXmXmXmXmXmXmXmXmXmXmXmXmXmXmXmX' ] H ` XX#Xb.{.kXjX5X Xm.s.b e 2 - < - mXmXmXmXmXmXmXmXmXmXmXmXmXmXmXmXmXmXmXmX",
"mXmXmXmXmXmXmXmXmXmXmXmXmXmXmXmX! :.0XtXU.B.N.D.9X6XI.j.{ P N G 2.3.S.F.W X.-X-Xu # < - mXmXmXmXmXmXmXmXmXmXmXmXmXmXmXmXmXmXmXmX",
"mXmXmXmXmXmXmXmXmXmXmXmXmXmXmXmX_ ,.7XeXQ.F.!.).9X8X^.M.L v ! ~ 8 x k.N.R +.:X:Xu # < - mXmXmXmXmXmXmXmXmXmXmXmXmXmXmXmXmXmXmXmX",
"mXmXmXmXmXmXmXmXmXmXmXmXmXmXvXxX6./ ~.(.Z.^.9XqX(.T.F.B.M U =X-XT m B ) -X;X!.B.r % < - mXmXmXmXmXmXmXmXmXmXmXmXmXmXmXmXmXmXmXmX",
"mXmXmXmXmXmXmXmXmXmXmXmXmXmXvXcX7.^ N.Z.N.^.wXrXB.z.B.N.T } ,X<X` J G ` ,X<XA.g.r % < - mXmXmXmXmXmXmXmXmXmXmXmXmXmXmXmXmXmXmXmX",
"mXmXmXmXmXmXmXmXmXmXmXmXmXmXmXmXmXmXmXmXmXmXmXmX>.:.K ` oX$X>X$XH.K.OX@X3X+XO.M 6 = - - mXmXmXmXmXmXmXmXmXmXmXmXmXmXmXmXmXmXmXmX",
"mXmXmXmXmXmXmXmXmXmXmXmXmXmXmXmXmXmXmXmXmXmXmXmX=.=.v P XX$X$X+XE.E.$X$X+X}.Q g 5 = - - mXmXmXmXmXmXmXmXmXmXmXmXmXmXmXmXmXmXmXmX",
"mXmXmXmXmXmXmXmXmXmXmXmXmXmXmXmXmXmXmXmXmXmXmXmX-.=.B C $.;.P.W.$X$XW.K.o.T B n < = - - mXmXmXmXmXmXmXmXmXmXmXmXmXmXmXmXmXmXmXmX",
"mXmXmXmXmXmXmXmXmXmXmXmXmXmXmXmXmXmXmXmXmXmXmXmX=.=.B B ~ @.c.L.+XOXP.c.H l M n 4 < < - mXmXmXmXmXmXmXmXmXmXmXmXmXmXmXmXmXmXmXmX",
"mXmXmXmXmXmXmXmXmXmXmXmXmXmXmXmXmXmXmXmXmXmXmXmX=.=.B M | @.$.%.*.*.%.#.@.| B n M v 2 = mXmXmXmXmXmXmXmXmXmXmXmXmXmXmXmXmXmXmXmX",
"mXmXmXmXmXmXmXmXmXmXmXmXmXmXmXmXmXmXmXmXmXmXmXmX=.=.B M | | [ [ [ [ [ [ | [ B n B n 2 = mXmXmXmXmXmXmXmXmXmXmXmXmXmXmXmXmXmXmXmX",
"mXmXmXmXmXmXmXmXmXmXmXmXmXmXmXmXmXmXmXmXmXmXmXmX=.=.M M | | | | | | | | | [ B n M n 2 = mXmXmXmXmXmXmXmXmXmXmXmXmXmXmXmXmXmXmXmX",
"mXmXmXmXmXmXmXmXmXmXmXmXmXmXmXmXmXmXmXmXmXmXmXmX=.=.H H | @.@.@.| | @.@.@.| L B B n 2 = mXmXmXmXmXmXmXmXmXmXmXmXmXmXmXmXmXmXmXmX",
"mXmXmXmXmXmXmXmXmXmXmXmXmXmXmXmXmXmXmXmXmXmXmXmX=.=._ ( [ [ _ _ | | _ _ [ [ _ ( B n 2 = mXmXmXmXmXmXmXmXmXmXmXmXmXmXmXmXmXmXmXmX",
"mXmXmXmXmXmXmXmXmXmXmXmXmXmXmXmXmXmXmXmXmXmXmXmX=.-.=.=.#.#.=.=.[ | =.=.#.#.-.=.B v 2 = mXmXmXmXmXmXmXmXmXmXmXmXmXmXmXmXmXmXmXmX",
"mXmXmXmXmXmXmXmXmXmXmXmXmXmXmXmXmXmXmXmXmXmXmXmX#.<.;X:XB.A.:X;XL E -X,XB.A.:X-XE z 4 = mXmXmXmXmXmXmXmXmXmXmXmXmXmXmXmXmXmXmXmX",
"mXmXmXmXmXmXmXmXmXmXmXmXmXmXmXmXmXmXmXmXmXmXmXmX#.0.:X,XB.A.:X:XH E -X,XB.A.:X;XE z 4 = mXmXmXmXmXmXmXmXmXmXmXmXmXmXmXmXmXmXmXmX",
"mXmXmXmXmXmXmXmXmXmXmXmXmXmXmXmXmXmXmXmXmXmXmXmX=.-.&.&.#.#.&.&.| | E E #.#.&.&.B n 2 = mXmXmXmXmXmXmXmXmXmXmXmXmXmXmXmXmXmXmXmX",
"mXmXmXmXmXmXmXmXmXmXmXmXmXmXmXmXmXmXmXmXmXmXmXmX=.=._ _ _ _ ( ( [ _ v v _ _ _ ( B n 2 = mXmXmXmXmXmXmXmXmXmXmXmXmXmXmXmXmXmXmXmX",
"mXmXmXmXmXmXmXmXmXmXmXmXmXmXmXmXmXmXmXmXmXmXmXmX=.=.H M f u f f u u u u u u u f M n 2 = mXmXmXmXmXmXmXmXmXmXmXmXmXmXmXmXmXmXmXmX",
"mXmXmXmXmXmXmXmXmXmXmXmXmXmXmXmXmXmXmXmXmXmXmXmX=.=.M z q 9 9 9 9 9 9 9 9 9 9 q M n 4 < mXmXmXmXmXmXmXmXmXmXmXmXmXmXmXmXmXmXmXmX",
"mXmXmXmXmXmXmXmXmXmXmXmXmXmXmXmXmXmXmXmXmXmXmXmX=.=.M v r q q q r r q q q q q r M M M n mXmXmXmXmXmXmXmXmXmXmXmXmXmXmXmXmXmXmXmX",
"mXmXmXmXmXmXmXmXmXmXmXmXmXmXmXmXmXmXmXmXmXmXmXmX=.=.M v r q q q q q q q q q q r n M B M mXmXmXmXmXmXmXmXmXmXmXmXmXmXmXmXmXmXmXmX",
"mXmXmXmXmXmXmXmXmXmXmXmXmXmXmXmXmXmXmXmXmXmXmXmX=.=.M v r q q q < < q q q q q r n M B M mXmXmXmXmXmXmXmXmXmXmXmXmXmXmXmXmXmXmXmX",
"mXmXmXmXmXmXmXmXmXmXmXmXmXmXmXmXmXmXmXmXmXmXmXmX=.=.M v r q q 9 - - 9 q q q q r n M B M mXmXmXmXmXmXmXmXmXmXmXmXmXmXmXmXmXmXmXmX",
"mXmXmXmXmXmXmXmXmXmXmXmXmXmXmXmXmXmXmXmXmXmXmXmX=.=.M v r 9 < - - - - < q q q r n M B M mXmXmXmXmXmXmXmXmXmXmXmXmXmXmXmXmXmXmXmX",
"mXmXmXmXmXmXmXmXmXmXmXmXmXmXmXmXmXmXmXmXmXmXmXmX=.=.M v r 9 - - - - - - q q q r n M B M mXmXmXmXmXmXmXmXmXmXmXmXmXmXmXmXmXmXmXmX",
"mXmXmXmXmXmXmXmXmXmXmXmXmXmXmXmXmXmXmXmXmXmXmXmX=.=.M v r 9 < - - - - - q q q r n M B M mXmXmXmXmXmXmXmXmXmXmXmXmXmXmXmXmXmXmXmX",
"mXmXmXmXmXmXmXmXmXmXmXmXmXmXmXmXmXmXmXmXmXmXmXmX=.=.M v r 9 < - - - - - q q q r n M B M mXmXmXmXmXmXmXmXmXmXmXmXmXmXmXmXmXmXmXmX",
"mXmXmXmXmXmXmXmXmXmXmXmXmXmXmXmXmXmXmXmXmXmXmXmX=.=.M v r 9 < - - - - - q q q r n M B M mXmXmXmXmXmXmXmXmXmXmXmXmXmXmXmXmXmXmXmX",
"mXmXmXmXmXmXmXmXmXmXmXmXmXmXmXmXmXmXmXmXmXmXmXmX-.=.M v r 9 < - - - - - q q q r n M M M mXmXmXmXmXmXmXmXmXmXmXmXmXmXmXmXmXmXmXmX",
"mXmXmXmXmXmXmXmXmXmXmXmXmXmXmXmXmXmXmXmXmXmX=.=.=.&.M v r 9 < - - - - - q q q r n M B M mXmXmXmXmXmXmXmXmXmXmXmXmXmXmXmXmXmXmXmX",
"mXmXmXmXmXmXmXmXmXmXmXmXmXmXmXmXmXmXmXmXmXmX=.>.-.&.M v r 9 < - - - - - q q q r M M M M mXmXmXmXmXmXmXmXmXmXmXmXmXmXmXmXmXmXmXmX",
"mXmXmXmXmXmXmXmXmXmXmXmXmXmXmXmXmXmXmXmXmXmX=.-.-.&.B v r 9 < - - - - - q q q q M M mXmXmXmXmXmXmXmXmXmXmXmXmXmXmXmXmXmXmXmXmXmX",
"mXmXmXmXmXmXmXmXmXmXmXmXmXmXmXmXmXmXmXmXmXmX=.-.-.&.B v r 9 < - - - - - q q q q M B mXmXmXmXmXmXmXmXmXmXmXmXmXmXmXmXmXmXmXmXmXmX",
"mXmXmXmXmXmXmXmXmXmXmXmXmXmXmXmXmXmXmXmXmXmX=.-.-.&.M v r 9 < - - - - - q q q q M B mXmXmXmXmXmXmXmXmXmXmXmXmXmXmXmXmXmXmXmXmXmX",
"mXmXmXmXmXmXmXmXmXmXmXmXmXmXmXmXmXmXmXmXmXmX=.-.=.&.B v r 9 - = - - - - q q q q M M mXmXmXmXmXmXmXmXmXmXmXmXmXmXmXmXmXmXmXmXmXmX",
"mXmXmXmXmXmXmXmXmXmXmXmXmXmXmXmXmXmXmXmXmXmX=.>.-.=.B v r 9 < - < < - < q q q q B B mXmXmXmXmXmXmXmXmXmXmXmXmXmXmXmXmXmXmXmXmXmX",
"mXmXmXmXmXmXmXmXmXmXmXmXmXmXmXmXmXmXmXmXmXmX=.=.=.&.M v r 9 - = - - - - 9 q q r M M mXmXmXmXmXmXmXmXmXmXmXmXmXmXmXmXmXmXmXmXmXmX",
"mXmXmXmXmXmXmXmXmXmXmXmXmXmXmXmXmXmXmXmXmXmXmXmXmXmXn n r q mXmXmXmXmXmXq q q q mXmXmXmXmXmXmXmXmXmXmXmXmXmXmXmXmXmXmXmXmXmXmXmX",
"mXmXmXmXmXmXmXmXmXmXmXmXmXmXmXmXmXmXmXmXmXmXmXmXmXmXv v q 9 mXmXmXmXmXmX9 q q 9 mXmXmXmXmXmXmXmXmXmXmXmXmXmXmXmXmXmXmXmXmXmXmXmX",
"mXmXmXmXmXmXmXmXmXmXmXmXmXmXmXmXmXmXmXmXmXmXmXmX* % * * % % mXmXmXmX% # % % % % mXmXmXmXmXmXmXmXmXmXmXmXmXmXmXmXmXmXmXmXmXmXmXmX",
"mXmXmXmXmXmXmXmXmXmXmXmXmXmXmXmXmXmXmXmXmXmXmXmX+ # + + # # mXmXmXmX# % # # # # mXmXmXmXmXmXmXmXmXmXmXmXmXmXmXmXmXmXmXmXmXmXmXmX",
"mXmXmXmXmXmXmXmXmXmXmXmXmXmXmXmXmXmXmXmXmXmX# # # # # # # # mXmX% # # # # # # # mXmXmXmXmXmXmXmXmXmXmXmXmXmXmXmXmXmXmXmXmXmXmXmX",
"mXmXmXmXmXmXmXmXmXmXmXmXmXmXmXmXmXmXmXmXmXmX# % # # # # # # mXmX# % # # # # # # mXmXmXmXmXmXmXmXmXmXmXmXmXmXmXmXmXmXmXmXmXmXmXmX"
};
