/* XPM */
static char *result[] = {
/* columns rows colors chars-per-pixel */
"64 64 230 2 ",
"   c black",
".  c gray1",
"X  c #040404",
"o  c #060607",
"O  c #00060A",
"+  c gray3",
"@  c #090909",
"#  c gray4",
"$  c #0A0A0B",
"%  c #0A0B0B",
"&  c #0B0B0B",
"*  c #0B0C0C",
"=  c #0C0C0C",
"-  c #0D0C0C",
";  c gray5",
":  c #0E0E0E",
">  c gray6",
",  c #0B1114",
"<  c #0C1215",
"1  c #101010",
"2  c #101011",
"3  c #111111",
"4  c #121111",
"5  c gray7",
"6  c #131212",
"7  c #131313",
"8  c #131414",
"9  c gray8",
"0  c #151414",
"q  c #151515",
"w  c #161514",
"e  c #161515",
"r  c #161616",
"t  c #161717",
"y  c gray9",
"u  c #181615",
"i  c #1A1715",
"p  c #1A1716",
"a  c #191817",
"s  c #181818",
"d  c #191818",
"f  c #181819",
"g  c #191919",
"h  c gray10",
"j  c #1B1A1A",
"k  c #1B1B1B",
"l  c #1B1C1C",
"z  c gray11",
"x  c #1D1C1C",
"c  c #1C1C1D",
"v  c #1C1D1D",
"b  c #1D1D1D",
"n  c #1D1D1E",
"m  c #1E1E1E",
"M  c #1E1F1F",
"N  c gray12",
"B  c #211905",
"V  c #201807",
"C  c #291F10",
"Z  c #291F11",
"A  c #292011",
"S  c #292111",
"D  c #2A2011",
"F  c #292012",
"G  c #2A2113",
"H  c #202020",
"J  c #212120",
"K  c #202021",
"L  c #202121",
"P  c gray13",
"I  c #222121",
"U  c #222221",
"Y  c #232221",
"T  c #212122",
"R  c #222222",
"E  c #232222",
"W  c #232322",
"Q  c #232323",
"!  c #242322",
"~  c #242323",
"^  c #252423",
"/  c #232324",
"(  c #212526",
")  c #232627",
"_  c gray14",
"`  c #242425",
"'  c #252525",
"]  c #262525",
"[  c #262625",
"{  c #272625",
"}  c gray15",
"|  c #272626",
" . c #272727",
".. c #2A2421",
"X. c #2B2521",
"o. c #2F2723",
"O. c #282727",
"+. c #282827",
"@. c #292827",
"#. c #282828",
"$. c #292828",
"%. c gray16",
"&. c #2A2929",
"*. c #2A2A29",
"=. c #2A2A2A",
"-. c gray17",
";. c #2C2B2B",
":. c #2C2C2C",
">. c #2D2D2D",
",. c #2E2D2C",
"<. c #2E2E2D",
"1. c #2C2E2F",
"2. c gray18",
"3. c #2F2E2E",
"4. c #2F2F2F",
"5. c #382D20",
"6. c #382D21",
"7. c #352D29",
"8. c #35302E",
"9. c #36312F",
"0. c #2F3133",
"q. c gray19",
"w. c #313030",
"e. c #303132",
"r. c #363433",
"t. c #333334",
"y. c #353434",
"u. c #363434",
"i. c #363535",
"p. c #373535",
"a. c gray21",
"s. c #373636",
"d. c #383636",
"f. c #383736",
"g. c #383737",
"h. c gray22",
"j. c #393838",
"k. c #393939",
"l. c #3B3938",
"z. c #3A3939",
"x. c #393A3A",
"c. c #3A3A3A",
"v. c #3A3B3B",
"b. c gray23",
"n. c #3E3B38",
"m. c #3B3C3C",
"M. c #3C3C3C",
"N. c gray24",
"B. c #3E3D3D",
"V. c #3D3E3E",
"C. c #3E3E3E",
"Z. c #3F3E3E",
"A. c #3F3F3F",
"S. c #403B3A",
"D. c #403D3A",
"F. c #403D3B",
"G. c #423D3B",
"H. c #413E3B",
"J. c #443E3B",
"K. c #423F3C",
"L. c #403F3F",
"P. c #413F3F",
"I. c #40403F",
"U. c #44403D",
"Y. c #44413E",
"T. c #45413E",
"R. c #46403E",
"E. c #45423F",
"W. c #414040",
"Q. c #414141",
"!. c #424140",
"~. c #424141",
"^. c gray26",
"/. c #434242",
"(. c #434343",
"). c #444342",
"_. c #444444",
"`. c gray27",
"'. c #464646",
"]. c gray28",
"[. c #4A4643",
"{. c #494744",
"}. c #4B4744",
"|. c #4C4845",
" X c #4C4846",
".X c #4D4946",
"XX c #4D4947",
"oX c #4E4A47",
"OX c #484848",
"+X c #484849",
"@X c #494949",
"#X c #494A4A",
"$X c gray29",
"%X c #4B4B4B",
"&X c #4F4B48",
"*X c #4C4B4B",
"=X c #4C4C4B",
"-X c #4C4C4C",
";X c #4D4C4C",
":X c gray30",
">X c #504C49",
",X c #554F4B",
"<X c #56504C",
"1X c #5A5753",
"2X c #5B5753",
"3X c #5B5754",
"4X c #5C5854",
"5X c #5D5954",
"6X c #5C5855",
"7X c #5D5955",
"8X c #5E5955",
"9X c #5D5956",
"0X c #5E5A56",
"qX c #5F5A56",
"wX c DimGray",
"eX c gray42",
"rX c #6C6C6C",
"tX c gray43",
"yX c #6F6F6F",
"uX c gray44",
"iX c #967E6F",
"pX c #988071",
"aX c #998072",
"sX c #9A8273",
"dX c #9B8273",
"fX c #9C8374",
"gX c #9E8475",
"hX c #A18777",
"jX c #A38879",
"kX c black",
/* pixels */
"kXkXkXkXkXkXkXkXkXkXkXkXkXkXkXkXkXkXkXkXkXkXkXkXkXkXkXkXkXkXkXkXkXkXkXkXkXkXkXkXkXkXkXkXkXkXkXkXkXkXkXkXkXkXkXkXkXkXkXkXkXkXkXkX",
"kXkXkXkXkXkXkXkXkXkXkXkXkXkXkXkXkXkXkXkXkXkXkXkXkXkXkXkXkXkXkXkXkXkXkXkXkXkXkXkXkXkXkXkXkXkXkXkXkXkXkXkXkXkXkXkXkXkXkXkXkXkXkXkX",
"kXkXkXkXkXkXkXkXkXkXkXkXkXkXjXfXX., B.C.#.}  .} kXkXkXkXkXkXkXkXkXkXkXkXkXkXkXkXkXkXkXkXkXkXkXkXkXkXkXkXkXkXkXkXkXkXkXkXkXkXkXkX",
"kXkXkXkXkXkXkXkXkXkXkXkXkXkXgXgX..< B.C.%. .-.#.kXkXkXkXkXkXkXkXkXkXkXkXkXkXkXkXkXkXkXkXkXkXkXkXkXkXkXkXkXkXkXkXkXkXkXkXkXkXkXkX",
"kXkXkXkXkXkXkXkXA S A F Z G 5.6.u t #.=. .=.N.N.%. .#. .3 ;     + @ = = > > kXkXkXkXkXkXkXkXkXkXkXkXkXkXkXkXkXkXkXkXkXkXkXkXkXkX",
"kXkXkXkXkXkXkXkXA A A A D C B V w y '  .' %.M.M.%. . .' 7 7 _ ' h g r q 3 > kXkXkXkXkXkXkXkXkXkXkXkXkXkXkXkXkXkXkXkXkXkXkXkXkXkX",
"kXkXkXkXkXkXkXkXkXkXkXkXkXkXkXkXkXkXkXkXkXkX%.-.#.} 9 q   m wXrX@X_.i.w.7 & > > kXkXkXkXkXkXkXkXkXkXkXkXkXkXkXkXkXkXkXkXkXkXkXkX",
"kXkXkXkXkXkXkXkXkXkXkXkXkXkXkXkXkXkXkXkXkXkX} '  .' 1 9 q :.tXuX-X].c.y.h 7 3 > kXkXkXkXkXkXkXkXkXkXkXkXkXkXkXkXkXkXkXkXkXkXkXkX",
"kXkXkXkXkXkXkXkXkXkXkXkXkXkXkXkXkXkXkXkXkXkXkXkXkXkXX R rXyXuXtX:XOX@X].i.w.0 = 3 > kXkXkXkXkXkXkXkXkXkXkXkXkXkXkXkXkXkXkXkXkXkX",
"kXkXkXkXkXkXkXkXkXkXkXkXkXkXkXkXkXkXkXkXkXkXkXkXkXkX. P eXtXtXeX$X`.OX'.z.i.r * 3 > kXkXkXkXkXkXkXkXkXkXkXkXkXkXkXkXkXkXkXkXkXkX",
"kXkXkXkXkXkXkXkXkXkXkXkXkXkXkXkXkXkXkXkXkXkXkXkXkXkX: 9 #.2.-X-X} R %.:.].`.g @ 5 : kXkXkXkXkXkXkXkXkXkXkXkXkXkXkXkXkXkXkXkXkXkX",
"kXkXkXkXkXkXkXkXkXkXkXkXkXkXkXkXkXkXkXkXkXkXkXkXkXkX: 5 s P _.`.Q H  .-.@X].g @ 5 > kXkXkXkXkXkXkXkXkXkXkXkXkXkXkXkXkXkXkXkXkXkX",
"kXkXkXkXkXkXkXkXkXkXkXkXkXkXkXkXkXkXkXkXkXkXkXkXkXkX& y ].OXz.z.].OX].].$X'.g @ 5 > kXkXkXkXkXkXkXkXkXkXkXkXkXkXkXkXkXkXkXkXkXkX",
"kXkXkXkXkXkXkXkXkXkXkXkXkXkXkXkXkXkXkXkXkXkXkXkXkXkX& y OXOXy.y.OX@X@X@X@X`.g @ 5 > kXkXkXkXkXkXkXkXkXkXkXkXkXkXkXkXkXkXkXkXkXkX",
"kXkXkXkXkXkXkXkXkXkXkXkXkXkXkXkXkXkXkXkXkXkXkXkXkXkX= r ^.^.R I ^._.@XOXz.y.e * 3 > kXkXkXkXkXkXkXkXkXkXkXkXkXkXkXkXkXkXkXkXkXkX",
"kXkXkXkXkXkXkXkXkXkXkXkXkXkXkXkXkXkXkXkXkXkXkXkXkXkX= r ^.Q._ Q Q.(.OX].l.r.e * 3 > kXkXkXkXkXkXkXkXkXkXkXkXkXkXkXkXkXkXkXkXkXkX",
"kXkXkXkXkXkXkXkXkXkXkXkXkXkXkXkXkXkXkXkXkXkXkXkXkXkX$ y Q._.].]._.^.j.i.0.1.8 - 2 > kXkXkXkXkXkXkXkXkXkXkXkXkXkXkXkXkXkXkXkXkXkX",
"kXkXkXkXkXkXkXkXkXkXkXkXkXkXkXkXkXkXkXkXkXkXkXkXkXkX: g Q._.OXOX(.Q.a.u.R.J.a * 4 > kXkXkXkXkXkXkXkXkXkXkXkXkXkXkXkXkXkXkXkXkXkX",
"kXkXkXkXkXkXkXkXkXkXkXkXkXkXkXkXkXkXkXkXkXkXkXkXo * g H N.A.h.g.s.d.e.S.aXiXo.  i : kXkXkXkXkXkXkXkXkXkXkXkXkXkXkXkXkXkXkXkXkXkX",
"kXkXkXkXkXkXkXkXkXkXkXkXkXkXkXkXkXkXkXkXkXkXkXkXj x H _ b.M.y.y.p.f.t.G.dXpX7.O p : kXkXkXkXkXkXkXkXkXkXkXkXkXkXkXkXkXkXkXkXkXkX",
"kXkXkXkXkXkXkXkXkXkXkXkXkXkXkXkX/ <.5XqXP.N.M.Z.4X1XL.x.' P v ! .X&XoXoX<X,XoX[.a % 1 > kXkXkXkXkXkXkXkXkXkXkXkXkXkXkXkXkXkXkXkX",
"kXkXkXkXkXkXkXkXkXkXkXkXkXkXkXkX' 3.2X9XW.A.Q.).6X3X~.m.I b R +.}..XoXoX{.{.>XXXd % 3 > kXkXkXkXkXkXkXkXkXkXkXkXkXkXkXkXkXkXkXkX",
"kXkXkXkXkXkXkXkXkXkXkXkXkXkXhXsX8.) !./.V.~.4X7X/.I.A.N.n T +X$X[ [ Z.L.^ @.*X*Xy & 1 > kXkXkXkXkXkXkXkXkXkXkXkXkXkXkXkXkXkXkXkX",
"kXkXkXkXkXkXkXkXkXkXkXkXkXkXhXdX9.( M.V.M.~.8X0XN.v.N.M.~ O.-X:XN m b.M.K ' $X$Xy & 1 > kXkXkXkXkXkXkXkXkXkXkXkXkXkXkXkXkXkXkXkX",
"kXkXkXkXkXkXkXkXkXkXkXkXkXkXkXkXkXkXkXkXkXkXkXkX2.<.L ] }..X&X XE c m _ #X%XQ.N.r = 1 > kXkXkXkXkXkXkXkXkXkXkXkXkXkXkXkXkXkXkXkX",
"kXkXkXkXkXkXkXkXkXkXkXkXkXkXkXkXkXkXkXkXkXkXkXkX-.-.z U .X>X&X.X| P Y O.=X;XC.k.r = 1 > kXkXkXkXkXkXkXkXkXkXkXkXkXkXkXkXkXkXkXkX",
"kXkXkXkXkXkXkXkXkXkXkXkXkXkXkXkXkXkXkXkXkXkXkXkX-.;.n ! .X>X&XoXD.F.|..X>X.X+.M 7 : > > kXkXkXkXkXkXkXkXkXkXkXkXkXkXkXkXkXkXkXkX",
"kXkXkXkXkXkXkXkXkXkXkXkXkXkXkXkXkXkXkXkXkXkXkXkX-.-.b E }.oXoX.XU.Y.oX&XoX[.W f 6 > > > kXkXkXkXkXkXkXkXkXkXkXkXkXkXkXkXkXkXkXkX",
"kXkXkXkXkXkXkXkXkXkXkXkXkXkXkXkXkXkXkXkXkXkXkXkX-.-.N N %.,.K.E.oXoXT.H.{ I H m 1 : > > kXkXkXkXkXkXkXkXkXkXkXkXkXkXkXkXkXkXkXkX",
"kXkXkXkXkXkXkXkXkXkXkXkXkXkXkXkXkXkXkXkXkXkXkXkX-.-.N N ` $.n.H.|.|.K.n.J l m b 5 1 1 > kXkXkXkXkXkXkXkXkXkXkXkXkXkXkXkXkXkXkXkX",
"kXkXkXkXkXkXkXkXkXkXkXkXkXkXkXkXkXkXkXkXkXkXkXkX-.-.N m  .#.&.*.;.;.*.&. .} N b m z 3 : kXkXkXkXkXkXkXkXkXkXkXkXkXkXkXkXkXkXkXkX",
"kXkXkXkXkXkXkXkXkXkXkXkXkXkXkXkXkXkXkXkXkXkXkXkX-.-.N m  . .} } ' ' } }  .} N m N b 3 : kXkXkXkXkXkXkXkXkXkXkXkXkXkXkXkXkXkXkXkX",
"kXkXkXkXkXkXkXkXkXkXkXkXkXkXkXkXkXkXkXkXkXkXkXkX-.-.m m  . . .O.#.#.O. . .} m b m b 3 : kXkXkXkXkXkXkXkXkXkXkXkXkXkXkXkXkXkXkXkX",
"kXkXkXkXkXkXkXkXkXkXkXkXkXkXkXkXkXkXkXkXkXkXkXkX-.-.H N  . . . . . . . . . .H N N b 3 : kXkXkXkXkXkXkXkXkXkXkXkXkXkXkXkXkXkXkXkX",
"kXkXkXkXkXkXkXkXkXkXkXkXkXkXkXkXkXkXkXkXkXkXkXkX-.-.' ' } } } }  . .} } } } ' _ N b 3 : kXkXkXkXkXkXkXkXkXkXkXkXkXkXkXkXkXkXkXkX",
"kXkXkXkXkXkXkXkXkXkXkXkXkXkXkXkXkXkXkXkXkXkXkXkX-.:.=.=.%.%.=.=. . .=.=.%.%.=.%.N b 3 : kXkXkXkXkXkXkXkXkXkXkXkXkXkXkXkXkXkXkXkX",
"kXkXkXkXkXkXkXkXkXkXkXkXkXkXkXkXkXkXkXkXkXkXkXkX%.q.%X-XN.C.-X%XP Q $X-XN.C.-X$XQ k 5 : kXkXkXkXkXkXkXkXkXkXkXkXkXkXkXkXkXkXkXkX",
"kXkXkXkXkXkXkXkXkXkXkXkXkXkXkXkXkXkXkXkXkXkXkXkX%.4.$X%XN.C.%X$XP Q @X%XN.C.%X@XQ k 5 : kXkXkXkXkXkXkXkXkXkXkXkXkXkXkXkXkXkXkXkX",
"kXkXkXkXkXkXkXkXkXkXkXkXkXkXkXkXkXkXkXkXkXkXkXkX-.:.-.-.=.=.-.-. .} _ ' %.=.:.-.N z 3 : kXkXkXkXkXkXkXkXkXkXkXkXkXkXkXkXkXkXkXkX",
"kXkXkXkXkXkXkXkXkXkXkXkXkXkXkXkXkXkXkXkXkXkXkXkX-.-.' _ ' ' _ _ } ' k k _ ' _ Q N b 3 > kXkXkXkXkXkXkXkXkXkXkXkXkXkXkXkXkXkXkXkX",
"kXkXkXkXkXkXkXkXkXkXkXkXkXkXkXkXkXkXkXkXkXkXkXkX-.-.H m s y s s r r y y y s s s m b 1 : kXkXkXkXkXkXkXkXkXkXkXkXkXkXkXkXkXkXkXkX",
"kXkXkXkXkXkXkXkXkXkXkXkXkXkXkXkXkXkXkXkXkXkXkXkX:.-.m z q 9 9 9 9 9 q q 9 9 9 q m b 5 1 kXkXkXkXkXkXkXkXkXkXkXkXkXkXkXkXkXkXkXkX",
"kXkXkXkXkXkXkXkXkXkXkXkXkXkXkXkXkXkXkXkXkXkX-.-.-.=.N z r q q q q q q q q q q r b m m b kXkXkXkXkXkXkXkXkXkXkXkXkXkXkXkXkXkXkXkX",
"kXkXkXkXkXkXkXkXkXkXkXkXkXkXkXkXkXkXkXkXkXkX-.2.:.=.N z r q q q q q q q q q q r b m N m kXkXkXkXkXkXkXkXkXkXkXkXkXkXkXkXkXkXkXkX",
"kXkXkXkXkXkXkXkXkXkXkXkXkXkXkXkXkXkXkXkXkXkX-.:.:.=.m z r q q q 1 1 q q q q q r b m m m kXkXkXkXkXkXkXkXkXkXkXkXkXkXkXkXkXkXkXkX",
"kXkXkXkXkXkXkXkXkXkXkXkXkXkXkXkXkXkXkXkXkXkX-.:.:.=.N z r q q 9 > > 9 q q q q r b m m m kXkXkXkXkXkXkXkXkXkXkXkXkXkXkXkXkXkXkXkX",
"kXkXkXkXkXkXkXkXkXkXkXkXkXkXkXkXkXkXkXkXkXkX-.:.:.=.m z r 9 1 > > > > 1 q q q r b m N m kXkXkXkXkXkXkXkXkXkXkXkXkXkXkXkXkXkXkXkX",
"kXkXkXkXkXkXkXkXkXkXkXkXkXkXkXkXkXkXkXkXkXkX-.:.:.=.N z r 9 > : > > > > q q q r m m m m kXkXkXkXkXkXkXkXkXkXkXkXkXkXkXkXkXkXkXkX",
"kXkXkXkXkXkXkXkXkXkXkXkXkXkXkXkXkXkXkXkXkXkX-.:.:.=.N z r 9 1 > > > > 1 q q q q m m kXkXkXkXkXkXkXkXkXkXkXkXkXkXkXkXkXkXkXkXkXkX",
"kXkXkXkXkXkXkXkXkXkXkXkXkXkXkXkXkXkXkXkXkXkX-.:.:.=.N z r 9 1 > > > > > q q q q m N kXkXkXkXkXkXkXkXkXkXkXkXkXkXkXkXkXkXkXkXkXkX",
"kXkXkXkXkXkXkXkXkXkXkXkXkXkXkXkXkXkXkXkX-.-.-.-.-.=.m z r 9 1 > > > > > q q q q m N kXkXkXkXkXkXkXkXkXkXkXkXkXkXkXkXkXkXkXkXkXkX",
"kXkXkXkXkXkXkXkXkXkXkXkXkXkXkXkXkXkXkXkX-.>.-.-.-.=.m z r 9 1 > > > > > q q q q m m kXkXkXkXkXkXkXkXkXkXkXkXkXkXkXkXkXkXkXkXkXkX",
"kXkXkXkXkXkXkXkXkXkXkXkXkXkXkXkXkXkXkXkX-.-.-.-.-.=.N z r 9 1 > > > > > q q q q N N kXkXkXkXkXkXkXkXkXkXkXkXkXkXkXkXkXkXkXkXkXkX",
"kXkXkXkXkXkXkXkXkXkXkXkXkXkXkXkXkXkXkXkX-.:.-.-.-.=.N z r 9 1 > > > > > q q q r m m kXkXkXkXkXkXkXkXkXkXkXkXkXkXkXkXkXkXkXkXkXkX",
"kXkXkXkXkXkXkXkXkXkXkXkXkXkXkXkXkXkXkXkX-.>.:.:.-.=.m z r 9 1 > > > > > q q q q kXkXkXkXkXkXkXkXkXkXkXkXkXkXkXkXkXkXkXkXkXkXkXkX",
"kXkXkXkXkXkXkXkXkXkXkXkXkXkXkXkXkXkXkXkX-.-.-.-.-.=.m z r 9 > : > > > > q q q 9 kXkXkXkXkXkXkXkXkXkXkXkXkXkXkXkXkXkXkXkXkXkXkXkX",
"kXkXkXkXkXkXkXkXkXkXkXkXkXkXkXkXkXkXkXkXkXkXkXkX:.:.m z r 9 1 > 1 1 > 1 q q q r kXkXkXkXkXkXkXkXkXkXkXkXkXkXkXkXkXkXkXkXkXkXkXkX",
"kXkXkXkXkXkXkXkXkXkXkXkXkXkXkXkXkXkXkXkXkXkXkXkX-.=.m z r 9 > : > > > > 9 q q 9 kXkXkXkXkXkXkXkXkXkXkXkXkXkXkXkXkXkXkXkXkXkXkXkX",
"kXkXkXkXkXkXkXkXkXkXkXkXkXkXkXkXkXkXkXkXkXkXkXkXkXkXb b r q kXkXkXkXkXkXq q r r kXkXkXkXkXkXkXkXkXkXkXkXkXkXkXkXkXkXkXkXkXkXkXkX",
"kXkXkXkXkXkXkXkXkXkXkXkXkXkXkXkXkXkXkXkXkXkXkXkXkXkXz z q 9 kXkXkXkXkXkX9 q q 9 kXkXkXkXkXkXkXkXkXkXkXkXkXkXkXkXkXkXkXkXkXkXkXkX",
"kXkXkXkXkXkXkXkXkXkXkXkXkXkXkXkXkXkXkXkXkXkXkXkX; = ; ; = = kXkXkXkX= & = = = = kXkXkXkXkXkXkXkXkXkXkXkXkXkXkXkXkXkXkXkXkXkXkXkX",
"kXkXkXkXkXkXkXkXkXkXkXkXkXkXkXkXkXkXkXkXkXkXkXkX# & # # & & kXkXkXkX& = & & & & kXkXkXkXkXkXkXkXkXkXkXkXkXkXkXkXkXkXkXkXkXkXkXkX",
"kXkXkXkXkXkXkXkXkXkXkXkXkXkXkXkXkXkXkXkXkXkX& & & & & & & & kXkX= & & & & & & & kXkXkXkXkXkXkXkXkXkXkXkXkXkXkXkXkXkXkXkXkXkXkXkX",
"kXkXkXkXkXkXkXkXkXkXkXkXkXkXkXkXkXkXkXkXkXkX& = & & & & & & kXkX& = & & & & & & kXkXkXkXkXkXkXkXkXkXkXkXkXkXkXkXkXkXkXkXkXkXkXkX"
};
