/* XPM */
static char *result[] = {
/* columns rows colors chars-per-pixel */
"64 64 238 2 ",
"   c black",
".  c #010203",
"X  c gray1",
"o  c #040404",
"O  c gray3",
"+  c #090909",
"@  c #090A0B",
"#  c gray4",
"$  c #0B0B0B",
"%  c #0B0C0C",
"&  c #0C0C0C",
"*  c #0D0C0C",
"=  c gray5",
"-  c #0E0E0E",
";  c #0E0F0F",
":  c gray6",
">  c #071114",
",  c #0B1114",
"<  c #0C1215",
"1  c #101010",
"2  c #101011",
"3  c #111111",
"4  c #121111",
"5  c gray7",
"6  c #131212",
"7  c #131313",
"8  c #161513",
"9  c #131414",
"0  c gray8",
"q  c #151414",
"w  c #151515",
"e  c #161514",
"r  c #161515",
"t  c #161616",
"y  c #161717",
"u  c gray9",
"i  c #181615",
"p  c #1A1715",
"a  c #181716",
"s  c #1A1716",
"d  c #11181B",
"f  c #171818",
"g  c #181818",
"h  c #181819",
"j  c #191919",
"k  c #191A1A",
"l  c gray10",
"z  c #1B1B1B",
"x  c #1B1B1C",
"c  c #1B1C1C",
"v  c gray11",
"b  c #1D1D1D",
"n  c #1D1D1E",
"m  c #1E1E1E",
"M  c #1F1F1E",
"N  c #1E1F1F",
"B  c gray12",
"V  c #211905",
"C  c #201807",
"Z  c #291F10",
"A  c #291F11",
"S  c #292011",
"D  c #292111",
"F  c #2A2011",
"G  c #292012",
"H  c #2A2113",
"J  c #22201F",
"K  c #202020",
"L  c #212120",
"P  c gray13",
"I  c #222121",
"U  c #232221",
"Y  c #212222",
"T  c #222222",
"R  c #232322",
"E  c #232323",
"W  c #242221",
"Q  c #242322",
"!  c #242423",
"~  c #212425",
"^  c #232424",
"/  c #232627",
"(  c gray14",
")  c #242425",
"_  c #252525",
"`  c #262424",
"'  c #262525",
"]  c #262625",
"[  c #272625",
"{  c gray15",
"}  c #272727",
"|  c #2A2421",
" . c #2B2521",
".. c #282726",
"X. c #292726",
"o. c #282727",
"O. c #282827",
"+. c #282828",
"@. c #292828",
"#. c #292928",
"$. c gray16",
"%. c #2A2929",
"&. c #2A2A29",
"*. c #2A2A2A",
"=. c #2B2A2A",
"-. c gray17",
";. c #2C2B2B",
":. c #2C2C2C",
">. c #2D2C2C",
",. c #2D2D2D",
"<. c #2E2E2D",
"1. c #2C2E2F",
"2. c gray18",
"3. c #2F2F2E",
"4. c #2F2F2F",
"5. c #302924",
"6. c #322A26",
"7. c #382D20",
"8. c #382D21",
"9. c #362F2B",
"0. c #35302E",
"q. c #36322F",
"w. c #39322F",
"e. c #2F3133",
"r. c gray19",
"t. c #313030",
"y. c #303132",
"u. c #363433",
"i. c #323334",
"p. c #333434",
"a. c #343434",
"s. c #353434",
"d. c #363434",
"f. c #363534",
"g. c #363535",
"h. c #373636",
"j. c #383737",
"k. c #393836",
"l. c #393838",
"z. c #393939",
"x. c #3B3938",
"c. c #3A3939",
"v. c #39393A",
"b. c #3A3A3A",
"n. c #3A3B3B",
"m. c gray23",
"M. c #3E3B38",
"N. c #3D3C39",
"B. c #3F3E3B",
"V. c #3B3C3C",
"C. c #3C3C3C",
"Z. c #3D3C3C",
"A. c #3C3C3D",
"S. c gray24",
"D. c #3E3D3D",
"F. c #3E3E3E",
"G. c #3F3F3F",
"H. c #403B3A",
"J. c #403C3A",
"K. c #413C3A",
"L. c #403D3A",
"P. c #403D3B",
"I. c #423D3B",
"U. c #413E3B",
"Y. c #433E3B",
"T. c #423F3C",
"R. c #403F3E",
"E. c #413F3F",
"W. c #41403F",
"Q. c #44403D",
"!. c #44413E",
"~. c #45413E",
"^. c #46403E",
"/. c #45423F",
"(. c #48423E",
"). c #49433F",
"_. c gray25",
"`. c #414040",
"'. c #414141",
"]. c #424141",
"[. c #424241",
"{. c gray26",
"}. c #434242",
"|. c #434343",
" X c #444343",
".X c #444444",
"XX c gray27",
"oX c #464646",
"OX c gray28",
"+X c #4A4541",
"@X c #4A4643",
"#X c #484644",
"$X c #494644",
"%X c #4B4744",
"&X c #4C4845",
"*X c #4F4844",
"=X c #4D4946",
"-X c #4E4A47",
";X c #484848",
":X c #494949",
">X c gray29",
",X c #4B4B4B",
"<X c #4E4A48",
"1X c #4F4B48",
"2X c #4C4C4B",
"3X c #4C4C4C",
"4X c #4D4C4C",
"5X c gray30",
"6X c #504C48",
"7X c #504C49",
"8X c #57504C",
"9X c #58504C",
"0X c #595652",
"qX c #5B5753",
"wX c #5B5854",
"eX c #5C5854",
"rX c #5C5855",
"tX c #5D5955",
"yX c #5D5956",
"uX c #5E5A56",
"iX c DimGray",
"pX c gray42",
"aX c #6C6C6C",
"sX c gray43",
"dX c #6F6F6F",
"fX c gray44",
"gX c #967E70",
"hX c #977F71",
"jX c #987F71",
"kX c #998072",
"lX c #998173",
"zX c #9A8173",
"xX c #9B8273",
"cX c #9C8374",
"vX c #9E8475",
"bX c #A18677",
"nX c #A38879",
"mX c black",
/* pixels */
"mXmXmXmXmXmXmXmXmXmXmXmXmXmXmXmXmXmXmXmXmXmXmXmXmXmXmXmXmXmXmXmXmXmXmXmXmXmXmXmXmXmXmXmXmXmXmXmXmXmXmXmXmXmXmXmXmXmXmXmXmXmXmXmX",
"mXmXmXmXmXmXmXmXmXmXmXmXmXmXmXmXmXmXmXmXmXmXmXmXmXmXmXmXmXmXmXmXmXmXmXmXmXmXmXmXmXmXmXmXmXmXmXmXmXmXmXmXmXmXmXmXmXmXmXmXmXmXmXmX",
"mXmXmXmXmXmXmXmXmXmXmXmXmXmXnXcX ., D.F.+.{ } { mXmXmXmXmXmXmXmXmXmXmXmXmXmXmXmXmXmXmXmXmXmXmXmXmXmXmXmXmXmXmXmXmXmXmXmXmXmXmXmX",
"mXmXmXmXmXmXmXmXmXmXmXmXmXmXvXvX| < D.F.$.} -.+.mXmXmXmXmXmXmXmXmXmXmXmXmXmXmXmXmXmXmXmXmXmXmXmXmXmXmXmXmXmXmXmXmXmXmXmXmXmXmXmX",
"mXmXmXmXmXmXmXmXS D S G A H 7.8.i y +.*.} *.S.S.$.} +.} 3 =     O + & & : : mXmXmXmXmXmXmXmXmXmXmXmXmXmXmXmXmXmXmXmXmXmXmXmXmXmX",
"mXmXmXmXmXmXmXmXS S S S F Z V C e u _ } _ $.C.C.$.} } _ 7 7 ( _ l j t w 3 : mXmXmXmXmXmXmXmXmXmXmXmXmXmXmXmXmXmXmXmXmXmXmXmXmXmX",
"mXmXmXmXmXmXmXmXmXmXmXmXmXmXmXmXmXmXmXmXmXmX$.-.+.{ 0 w   m iXaX:X.Xg.t.7 $ : : mXmXmXmXmXmXmXmXmXmXmXmXmXmXmXmXmXmXmXmXmXmXmXmX",
"mXmXmXmXmXmXmXmXmXmXmXmXmXmXmXmXmXmXmXmXmXmX{ _ } _ 1 0 w :.sXfX3XOXb.s.l 7 3 : mXmXmXmXmXmXmXmXmXmXmXmXmXmXmXmXmXmXmXmXmXmXmXmX",
"mXmXmXmXmXmXmXmXmXmXmXmXmXmXmXmXmXmXmXmXmXmXmXmXmXmXo T aXdXfXsX5X;X:XOXg.t.q & 3 : mXmXmXmXmXmXmXmXmXmXmXmXmXmXmXmXmXmXmXmXmXmX",
"mXmXmXmXmXmXmXmXmXmXmXmXmXmXmXmXmXmXmXmXmXmXmXmXmXmXX P pXsXsXpX>XXX;XoXc.g.t % 3 : mXmXmXmXmXmXmXmXmXmXmXmXmXmXmXmXmXmXmXmXmXmX",
"mXmXmXmXmXmXmXmXmXmXmXmXmXmXmXmXmXmXmXmXmXmXmXmXmXmX- 0 +.2.3X3X{ T $.:.OXXXj + 5 - mXmXmXmXmXmXmXmXmXmXmXmXmXmXmXmXmXmXmXmXmXmX",
"mXmXmXmXmXmXmXmXmXmXmXmXmXmXmXmXmXmXmXmXmXmXmXmXmXmX- 5 g P .XXXE K } -.:XOXj + 5 : mXmXmXmXmXmXmXmXmXmXmXmXmXmXmXmXmXmXmXmXmXmX",
"mXmXmXmXmXmXmXmXmXmXmXmXmXmXmXmXmXmXmXmXmXmXmXmXmXmX$ u OX;Xc.c.OX;XOXOX>XoXj + 5 : mXmXmXmXmXmXmXmXmXmXmXmXmXmXmXmXmXmXmXmXmXmX",
"mXmXmXmXmXmXmXmXmXmXmXmXmXmXmXmXmXmXmXmXmXmXmXmXmXmX$ u ;X;Xs.s.;X:X:X:X:XXXj + 5 : mXmXmXmXmXmXmXmXmXmXmXmXmXmXmXmXmXmXmXmXmXmX",
"mXmXmXmXmXmXmXmXmXmXmXmXmXmXmXmXmXmXmXmXmXmXmXmXmXmX& t {.{.T I {..X:X;Xc.s.r % 3 : mXmXmXmXmXmXmXmXmXmXmXmXmXmXmXmXmXmXmXmXmXmX",
"mXmXmXmXmXmXmXmXmXmXmXmXmXmXmXmXmXmXmXmXmXmXmXmXmXmX& t {.'.( E '.|.;XOXx.u.r % 3 : mXmXmXmXmXmXmXmXmXmXmXmXmXmXmXmXmXmXmXmXmXmX",
"mXmXmXmXmXmXmXmXmXmXmXmXmXmXmXmXmXmXmXmXmXmXmXmXmXmX$ u '..XOXOX.X{.l.g.e.1.9 * 2 : mXmXmXmXmXmXmXmXmXmXmXmXmXmXmXmXmXmXmXmXmXmX",
"mXmXmXmXmXmXmXmXmXmXmXmXmXmXmXmXmXmXmXmXmXmXmXmXmXmX= g '..X;X;X X].h.d.^.Y.a @ 4 : mXmXmXmXmXmXmXmXmXmXmXmXmXmXmXmXmXmXmXmXmXmX",
"mXmXmXmXmXmXmXmXmXmXmXmXmXmXmXmXmXmXmXmXmXmXmXmX= 3 l P A.F.j.h.i.p.y.H.kXgX5.  p - mXmXmXmXmXmXmXmXmXmXmXmXmXmXmXmXmXmXmXmXmXmX",
"mXmXmXmXmXmXmXmXmXmXmXmXmXmXmXmXmXmXmXmXmXmXmXmX7 t b T S.F.g.f.J.K.a.I.xXjX6.  s - mXmXmXmXmXmXmXmXmXmXmXmXmXmXmXmXmXmXmXmXmXmX",
"mXmXmXmXmXmXmXmXmXmXmXmXmXmXmXmXmXmXmXmXmXmXmXmXh k k I =X6XB.+XxXlX9X$X*X(.8 . 3 : : : mXmXmXmXmXmXmXmXmXmXmXmXmXmXmXmXmXmXmXmX",
"mXmXmXmXmXmXmXmXmXmXmXmXmXmXmXmXmXmXmXmXmXmXmXmXX.O.P ' %X=XN.).jXhX8X#XU.k.M f 3 ; 1 : mXmXmXmXmXmXmXmXmXmXmXmXmXmXmXmXmXmXmXmX",
"mXmXmXmXmXmXmXmXmXmXmXmXmXmXmXmXE <.rXuXE.S.A.G.qX0XG.v...Q K U 9.w.R.G.W [ :X:Xu $ 1 : mXmXmXmXmXmXmXmXmXmXmXmXmXmXmXmXmXmXmXmX",
"mXmXmXmXmXmXmXmXmXmXmXmXmXmXmXmX_ 3.wXuX`.G._.}.tXeX].V.P c T T > d n.S.P { ,X,Xu $ 1 : mXmXmXmXmXmXmXmXmXmXmXmXmXmXmXmXmXmXmXmX",
"mXmXmXmXmXmXmXmXmXmXmXmXmXmXbXzX0./ W.[.F.[.tXyX[.G.G.S.n Y :X>X` J m ^ :X,X'.S.t & 1 : mXmXmXmXmXmXmXmXmXmXmXmXmXmXmXmXmXmXmXmX",
"mXmXmXmXmXmXmXmXmXmXmXmXmXmXbXzXq.~ Z.F.A.`.tXyXD.m.S.m.! @.2X4X] L U o.2X4XF.z.t & 1 : mXmXmXmXmXmXmXmXmXmXmXmXmXmXmXmXmXmXmXmX",
"mXmXmXmXmXmXmXmXmXmXmXmXmXmXmXmXmXmXmXmXmXmXmXmX2.,.P ] %X-X1X<XL.P.&X=X7X=XO.N 7 - : : mXmXmXmXmXmXmXmXmXmXmXmXmXmXmXmXmXmXmXmX",
"mXmXmXmXmXmXmXmXmXmXmXmXmXmXmXmXmXmXmXmXmXmXmXmX*.=.x I &X1X-X=XQ.!.-X1X-X@XR h 6 : : : mXmXmXmXmXmXmXmXmXmXmXmXmXmXmXmXmXmXmXmX",
"mXmXmXmXmXmXmXmXmXmXmXmXmXmXmXmXmXmXmXmXmXmXmXmX:.-.B K +.>.T./.-X-X~.U.[ I K m 1 - : : mXmXmXmXmXmXmXmXmXmXmXmXmXmXmXmXmXmXmXmX",
"mXmXmXmXmXmXmXmXmXmXmXmXmXmXmXmXmXmXmXmXmXmXmXmX-.-.B B ) #.M.U.&X&XT.M.L c m b 5 1 1 : mXmXmXmXmXmXmXmXmXmXmXmXmXmXmXmXmXmXmXmX",
"mXmXmXmXmXmXmXmXmXmXmXmXmXmXmXmXmXmXmXmXmXmXmXmX-.-.B m } +.%.&.;.;.&.%.} { B b m v 3 - mXmXmXmXmXmXmXmXmXmXmXmXmXmXmXmXmXmXmXmX",
"mXmXmXmXmXmXmXmXmXmXmXmXmXmXmXmXmXmXmXmXmXmXmXmX-.-.B m } } { { _ _ { { } { B m B b 3 - mXmXmXmXmXmXmXmXmXmXmXmXmXmXmXmXmXmXmXmX",
"mXmXmXmXmXmXmXmXmXmXmXmXmXmXmXmXmXmXmXmXmXmXmXmX-.-.m m } } } o.+.+.o.} } { m b m b 3 - mXmXmXmXmXmXmXmXmXmXmXmXmXmXmXmXmXmXmXmX",
"mXmXmXmXmXmXmXmXmXmXmXmXmXmXmXmXmXmXmXmXmXmXmXmX-.-.K B } } } } } } } } } } K B B b 3 - mXmXmXmXmXmXmXmXmXmXmXmXmXmXmXmXmXmXmXmX",
"mXmXmXmXmXmXmXmXmXmXmXmXmXmXmXmXmXmXmXmXmXmXmXmX-.-._ _ { { { { } } { { { { _ ( B b 3 - mXmXmXmXmXmXmXmXmXmXmXmXmXmXmXmXmXmXmXmX",
"mXmXmXmXmXmXmXmXmXmXmXmXmXmXmXmXmXmXmXmXmXmXmXmX-.:.*.*.$.$.*.*.} } *.*.$.$.*.$.B b 3 - mXmXmXmXmXmXmXmXmXmXmXmXmXmXmXmXmXmXmXmX",
"mXmXmXmXmXmXmXmXmXmXmXmXmXmXmXmXmXmXmXmXmXmXmXmX$.r.,X3XS.F.3X,XP E >X3XS.F.3X>XE z 5 - mXmXmXmXmXmXmXmXmXmXmXmXmXmXmXmXmXmXmXmX",
"mXmXmXmXmXmXmXmXmXmXmXmXmXmXmXmXmXmXmXmXmXmXmXmX$.4.>X,XS.F.,X>XP E :X,XS.F.,X:XE z 5 - mXmXmXmXmXmXmXmXmXmXmXmXmXmXmXmXmXmXmXmX",
"mXmXmXmXmXmXmXmXmXmXmXmXmXmXmXmXmXmXmXmXmXmXmXmX-.:.-.-.*.*.-.-.} { ( _ $.*.:.-.B v 3 - mXmXmXmXmXmXmXmXmXmXmXmXmXmXmXmXmXmXmXmX",
"mXmXmXmXmXmXmXmXmXmXmXmXmXmXmXmXmXmXmXmXmXmXmXmX-.-._ ( _ _ ( ( { _ z z ( _ ( E B b 3 : mXmXmXmXmXmXmXmXmXmXmXmXmXmXmXmXmXmXmXmX",
"mXmXmXmXmXmXmXmXmXmXmXmXmXmXmXmXmXmXmXmXmXmXmXmX-.-.K m g u g g t t u u u g g g m b 1 - mXmXmXmXmXmXmXmXmXmXmXmXmXmXmXmXmXmXmXmX",
"mXmXmXmXmXmXmXmXmXmXmXmXmXmXmXmXmXmXmXmXmXmXmXmX-.-.m v w 0 0 0 0 0 w w 0 0 0 w m b 5 1 mXmXmXmXmXmXmXmXmXmXmXmXmXmXmXmXmXmXmXmX",
"mXmXmXmXmXmXmXmXmXmXmXmXmXmXmXmXmXmXmXmXmXmXmXmX-.-.m v t w w w w w w w w w w t b m m b mXmXmXmXmXmXmXmXmXmXmXmXmXmXmXmXmXmXmXmX",
"mXmXmXmXmXmXmXmXmXmXmXmXmXmXmXmXmXmXmXmXmXmXmXmX-.-.m v t w w w w w w w w w w t b m B m mXmXmXmXmXmXmXmXmXmXmXmXmXmXmXmXmXmXmXmX",
"mXmXmXmXmXmXmXmXmXmXmXmXmXmXmXmXmXmXmXmXmXmXmXmX-.-.m v t w w w 1 1 w w w w w t b m m m mXmXmXmXmXmXmXmXmXmXmXmXmXmXmXmXmXmXmXmX",
"mXmXmXmXmXmXmXmXmXmXmXmXmXmXmXmXmXmXmXmXmXmXmXmX-.-.m v t w w w : : w w w w w t b m B m mXmXmXmXmXmXmXmXmXmXmXmXmXmXmXmXmXmXmXmX",
"mXmXmXmXmXmXmXmXmXmXmXmXmXmXmXmXmXmXmXmXmXmXmXmX-.-.m v t w w w : : w w w w w t b m B m mXmXmXmXmXmXmXmXmXmXmXmXmXmXmXmXmXmXmXmX",
"mXmXmXmXmXmXmXmXmXmXmXmXmXmXmXmXmXmXmXmXmXmXmXmX:.-.m v t w w 0 : : 0 w w w w t b m m m mXmXmXmXmXmXmXmXmXmXmXmXmXmXmXmXmXmXmXmX",
"mXmXmXmXmXmXmXmXmXmXmXmXmXmXmXmXmXmXmXmXmXmX-.-.-.*.B v t 0 1 : : : : 1 w w w t b m K m mXmXmXmXmXmXmXmXmXmXmXmXmXmXmXmXmXmXmXmX",
"mXmXmXmXmXmXmXmXmXmXmXmXmXmXmXmXmXmXmXmXmXmX-.,.:.*.B v t 0 : : : : : : w w w t m m m m mXmXmXmXmXmXmXmXmXmXmXmXmXmXmXmXmXmXmXmX",
"mXmXmXmXmXmXmXmXmXmXmXmXmXmXmXmXmXmXmXmXmXmX-.:.:.*.m v t 0 1 : : : : : w w w w m m mXmXmXmXmXmXmXmXmXmXmXmXmXmXmXmXmXmXmXmXmXmX",
"mXmXmXmXmXmXmXmXmXmXmXmXmXmXmXmXmXmXmXmXmXmX-.:.:.*.m v t 0 1 : : : : : w w w w m B mXmXmXmXmXmXmXmXmXmXmXmXmXmXmXmXmXmXmXmXmXmX",
"mXmXmXmXmXmXmXmXmXmXmXmXmXmXmXmXmXmXmXmXmXmX-.:.:.*.B v t 0 1 : : : : : w w w w m B mXmXmXmXmXmXmXmXmXmXmXmXmXmXmXmXmXmXmXmXmXmX",
"mXmXmXmXmXmXmXmXmXmXmXmXmXmXmXmXmXmXmXmXmXmX-.:.-.*.B v t 0 1 : : : : : w w w w m m mXmXmXmXmXmXmXmXmXmXmXmXmXmXmXmXmXmXmXmXmXmX",
"mXmXmXmXmXmXmXmXmXmXmXmXmXmXmXmXmXmXmXmXmXmX-.,.:.-.B v t 0 1 : : : : : w w w w B m mXmXmXmXmXmXmXmXmXmXmXmXmXmXmXmXmXmXmXmXmXmX",
"mXmXmXmXmXmXmXmXmXmXmXmXmXmXmXmXmXmXmXmXmXmX-.-.:.*.m v t 0 : - : : : : w w w t b B mXmXmXmXmXmXmXmXmXmXmXmXmXmXmXmXmXmXmXmXmXmX",
"mXmXmXmXmXmXmXmXmXmXmXmXmXmXmXmXmXmXmXmXmXmXmXmXmXmXb b w 0 1 : 1 1 : 1 w w w w mXmXmXmXmXmXmXmXmXmXmXmXmXmXmXmXmXmXmXmXmXmXmXmX",
"mXmXmXmXmXmXmXmXmXmXmXmXmXmXmXmXmXmXmXmXmXmXmXmXmXmXm b w 0 : - : : : : 0 w w 0 mXmXmXmXmXmXmXmXmXmXmXmXmXmXmXmXmXmXmXmXmXmXmXmX",
"mXmXmXmXmXmXmXmXmXmXmXmXmXmXmXmXmXmXmXmXmXmXmXmXmXmXm b t w mXmXmXmXmXmXw w w t mXmXmXmXmXmXmXmXmXmXmXmXmXmXmXmXmXmXmXmXmXmXmXmX",
"mXmXmXmXmXmXmXmXmXmXmXmXmXmXmXmXmXmXmXmXmXmXmXmXmXmXv v w 0 mXmXmXmXmXmX0 w w 0 mXmXmXmXmXmXmXmXmXmXmXmXmXmXmXmXmXmXmXmXmXmXmXmX",
"mXmXmXmXmXmXmXmXmXmXmXmXmXmXmXmXmXmXmXmXmXmXmXmX# $ = = & & mXmXmXmX& $ & & & & mXmXmXmXmXmXmXmXmXmXmXmXmXmXmXmXmXmXmXmXmXmXmXmX",
"mXmXmXmXmXmXmXmXmXmXmXmXmXmXmXmXmXmXmXmXmXmXmXmX$ $ # # $ $ mXmXmXmX$ & $ $ $ $ mXmXmXmXmXmXmXmXmXmXmXmXmXmXmXmXmXmXmXmXmXmXmXmX",
"mXmXmXmXmXmXmXmXmXmXmXmXmXmXmXmXmXmXmXmXmXmX$ $ $ $ $ $ $ $ mXmX& $ $ $ $ $ $ $ mXmXmXmXmXmXmXmXmXmXmXmXmXmXmXmXmXmXmXmXmXmXmXmX",
"mXmXmXmXmXmXmXmXmXmXmXmXmXmXmXmXmXmXmXmXmXmX$ & $ $ $ $ $ $ mXmX$ & $ $ $ $ $ $ mXmXmXmXmXmXmXmXmXmXmXmXmXmXmXmXmXmXmXmXmXmXmXmX"
};
